<svg xmlns="http://www.w3.org/2000/svg" width="375" viewBox="0 0 375 375" height="375" version="1.0"><g><g><g><path d="M 2.9375 -27.125 L 12.390625 -27.125 C 16.078125 -27.125 18.8125 -26.578125 20.59375 -25.484375 C 22.382812 -24.390625 23.28125 -22.6875 23.28125 -20.375 C 23.28125 -18.851562 22.890625 -17.550781 22.109375 -16.46875 C 21.335938 -15.394531 20.3125 -14.707031 19.03125 -14.40625 L 19.03125 -14.21875 C 20.71875 -13.769531 21.9375 -13.023438 22.6875 -11.984375 C 23.445312 -10.941406 23.828125 -9.59375 23.828125 -7.9375 C 23.828125 -5.476562 22.898438 -3.539062 21.046875 -2.125 C 19.203125 -0.707031 16.679688 0 13.484375 0 L 2.9375 0 Z M 10.265625 -16.71875 L 12.46875 -16.71875 C 13.519531 -16.71875 14.332031 -16.929688 14.90625 -17.359375 C 15.476562 -17.796875 15.765625 -18.441406 15.765625 -19.296875 C 15.765625 -20.816406 14.617188 -21.578125 12.328125 -21.578125 L 10.265625 -21.578125 Z M 10.265625 -11.359375 L 10.265625 -5.65625 L 12.84375 -5.65625 C 15.125 -5.65625 16.265625 -6.617188 16.265625 -8.546875 C 16.265625 -9.453125 15.957031 -10.144531 15.34375 -10.625 C 14.738281 -11.113281 13.851562 -11.359375 12.6875 -11.359375 Z M 10.265625 -11.359375" transform="translate(36.244 201.75)"/></g></g></g><g><g><g><path d="M 9.765625 0 L 2.5 0 L 2.5 -28.875 L 9.765625 -28.875 Z M 9.765625 0" transform="translate(61.844 201.75)"/></g></g></g><g><g><g><path d="M 17.484375 0 L 16.5625 -2.609375 L 16.140625 -2.609375 C 15.535156 -1.648438 14.691406 -0.910156 13.609375 -0.390625 C 12.523438 0.117188 11.253906 0.375 9.796875 0.375 C 7.484375 0.375 5.679688 -0.296875 4.390625 -1.640625 C 3.109375 -2.984375 2.46875 -4.878906 2.46875 -7.328125 L 2.46875 -21.015625 L 9.71875 -21.015625 L 9.71875 -9.53125 C 9.71875 -8.164062 9.910156 -7.128906 10.296875 -6.421875 C 10.691406 -5.710938 11.335938 -5.359375 12.234375 -5.359375 C 13.484375 -5.359375 14.375 -5.847656 14.90625 -6.828125 C 15.4375 -7.816406 15.703125 -9.476562 15.703125 -11.8125 L 15.703125 -21.015625 L 22.953125 -21.015625 L 22.953125 0 Z M 17.484375 0" transform="translate(74.125 201.75)"/></g></g></g><g><g><g><path d="M 12.65625 0.375 C 9.15625 0.375 6.4375 -0.554688 4.5 -2.421875 C 2.5625 -4.285156 1.59375 -6.9375 1.59375 -10.375 C 1.59375 -13.925781 2.488281 -16.648438 4.28125 -18.546875 C 6.082031 -20.441406 8.644531 -21.390625 11.96875 -21.390625 C 15.132812 -21.390625 17.578125 -20.5625 19.296875 -18.90625 C 21.023438 -17.257812 21.890625 -14.882812 21.890625 -11.78125 L 21.890625 -8.546875 L 8.921875 -8.546875 C 8.972656 -7.378906 9.40625 -6.457031 10.21875 -5.78125 C 11.03125 -5.113281 12.132812 -4.78125 13.53125 -4.78125 C 14.800781 -4.78125 15.96875 -4.898438 17.03125 -5.140625 C 18.101562 -5.390625 19.265625 -5.804688 20.515625 -6.390625 L 20.515625 -1.171875 C 19.378906 -0.585938 18.203125 -0.1875 16.984375 0.03125 C 15.773438 0.257812 14.332031 0.375 12.65625 0.375 Z M 12.234375 -16.453125 C 11.378906 -16.453125 10.660156 -16.179688 10.078125 -15.640625 C 9.503906 -15.109375 9.171875 -14.269531 9.078125 -13.125 L 15.3125 -13.125 C 15.28125 -14.132812 14.988281 -14.941406 14.4375 -15.546875 C 13.894531 -16.148438 13.160156 -16.453125 12.234375 -16.453125 Z M 12.234375 -16.453125" transform="translate(99.576 201.75)"/></g></g></g><g><g><g><path d="M 15.015625 -21.5 C 13.265625 -21.5 11.898438 -20.785156 10.921875 -19.359375 C 9.953125 -17.929688 9.46875 -15.960938 9.46875 -13.453125 C 9.46875 -8.234375 11.453125 -5.625 15.421875 -5.625 C 16.617188 -5.625 17.78125 -5.789062 18.90625 -6.125 C 20.03125 -6.457031 21.160156 -6.859375 22.296875 -7.328125 L 22.296875 -1.125 C 20.035156 -0.125 17.476562 0.375 14.625 0.375 C 10.53125 0.375 7.390625 -0.8125 5.203125 -3.1875 C 3.023438 -5.5625 1.9375 -8.992188 1.9375 -13.484375 C 1.9375 -16.296875 2.460938 -18.765625 3.515625 -20.890625 C 4.578125 -23.015625 6.097656 -24.648438 8.078125 -25.796875 C 10.066406 -26.941406 12.398438 -27.515625 15.078125 -27.515625 C 18.015625 -27.515625 20.816406 -26.878906 23.484375 -25.609375 L 21.25 -19.828125 C 20.25 -20.304688 19.242188 -20.703125 18.234375 -21.015625 C 17.234375 -21.335938 16.160156 -21.5 15.015625 -21.5 Z M 15.015625 -21.5" transform="translate(123.062 201.75)"/></g></g></g><g><g><g><path d="M 16.21875 0 L 14.828125 -2.78125 L 14.671875 -2.78125 C 13.703125 -1.570312 12.707031 -0.742188 11.6875 -0.296875 C 10.675781 0.148438 9.363281 0.375 7.75 0.375 C 5.769531 0.375 4.210938 -0.21875 3.078125 -1.40625 C 1.941406 -2.59375 1.375 -4.265625 1.375 -6.421875 C 1.375 -8.660156 2.148438 -10.328125 3.703125 -11.421875 C 5.265625 -12.515625 7.523438 -13.128906 10.484375 -13.265625 L 13.984375 -13.375 L 13.984375 -13.671875 C 13.984375 -15.398438 13.132812 -16.265625 11.4375 -16.265625 C 9.894531 -16.265625 7.941406 -15.75 5.578125 -14.71875 L 3.484375 -19.5 C 5.929688 -20.757812 9.023438 -21.390625 12.765625 -21.390625 C 15.460938 -21.390625 17.550781 -20.722656 19.03125 -19.390625 C 20.507812 -18.054688 21.25 -16.1875 21.25 -13.78125 L 21.25 0 Z M 10.84375 -4.75 C 11.71875 -4.75 12.46875 -5.023438 13.09375 -5.578125 C 13.71875 -6.140625 14.03125 -6.863281 14.03125 -7.75 L 14.03125 -9.390625 L 12.359375 -9.3125 C 9.972656 -9.226562 8.78125 -8.351562 8.78125 -6.6875 C 8.78125 -5.394531 9.46875 -4.75 10.84375 -4.75 Z M 10.84375 -4.75" transform="translate(147.716 201.75)"/></g></g></g><g><g><g><path d="M 8.015625 0 L 0 -21.015625 L 7.578125 -21.015625 L 11.140625 -8.59375 C 11.148438 -8.53125 11.171875 -8.421875 11.203125 -8.265625 C 11.242188 -8.117188 11.28125 -7.941406 11.3125 -7.734375 C 11.351562 -7.535156 11.390625 -7.320312 11.421875 -7.09375 C 11.453125 -6.863281 11.46875 -6.648438 11.46875 -6.453125 L 11.59375 -6.453125 C 11.59375 -7.097656 11.707031 -7.796875 11.9375 -8.546875 L 15.65625 -21.015625 L 23.21875 -21.015625 L 15.203125 0 Z M 8.015625 0" transform="translate(171.387 201.75)"/></g></g></g><g><g><g><path d="M 12.65625 0.375 C 9.15625 0.375 6.4375 -0.554688 4.5 -2.421875 C 2.5625 -4.285156 1.59375 -6.9375 1.59375 -10.375 C 1.59375 -13.925781 2.488281 -16.648438 4.28125 -18.546875 C 6.082031 -20.441406 8.644531 -21.390625 11.96875 -21.390625 C 15.132812 -21.390625 17.578125 -20.5625 19.296875 -18.90625 C 21.023438 -17.257812 21.890625 -14.882812 21.890625 -11.78125 L 21.890625 -8.546875 L 8.921875 -8.546875 C 8.972656 -7.378906 9.40625 -6.457031 10.21875 -5.78125 C 11.03125 -5.113281 12.132812 -4.78125 13.53125 -4.78125 C 14.800781 -4.78125 15.96875 -4.898438 17.03125 -5.140625 C 18.101562 -5.390625 19.265625 -5.804688 20.515625 -6.390625 L 20.515625 -1.171875 C 19.378906 -0.585938 18.203125 -0.1875 16.984375 0.03125 C 15.773438 0.257812 14.332031 0.375 12.65625 0.375 Z M 12.234375 -16.453125 C 11.378906 -16.453125 10.660156 -16.179688 10.078125 -15.640625 C 9.503906 -15.109375 9.171875 -14.269531 9.078125 -13.125 L 15.3125 -13.125 C 15.28125 -14.132812 14.988281 -14.941406 14.4375 -15.546875 C 13.894531 -16.148438 13.160156 -16.453125 12.234375 -16.453125 Z M 12.234375 -16.453125" transform="translate(194.594 201.75)"/></g></g></g><g fill="#004AAD"><g><g><path d="M 14.75 0 L 9.203125 -19.53125 L 9.03125 -19.53125 C 9.289062 -16.207031 9.421875 -13.625 9.421875 -11.78125 L 9.421875 0 L 2.9375 0 L 2.9375 -27.125 L 12.6875 -27.125 L 18.34375 -7.875 L 18.5 -7.875 L 24.046875 -27.125 L 33.828125 -27.125 L 33.828125 0 L 27.09375 0 L 27.09375 -11.890625 C 27.09375 -12.515625 27.097656 -13.203125 27.109375 -13.953125 C 27.128906 -14.703125 27.21875 -16.550781 27.375 -19.5 L 27.203125 -19.5 L 21.734375 0 Z M 14.75 0" transform="translate(218.072 201.75)"/></g></g></g><g fill="#004AAD"><g><g><path d="M 12.65625 0.375 C 9.15625 0.375 6.4375 -0.554688 4.5 -2.421875 C 2.5625 -4.285156 1.59375 -6.9375 1.59375 -10.375 C 1.59375 -13.925781 2.488281 -16.648438 4.28125 -18.546875 C 6.082031 -20.441406 8.644531 -21.390625 11.96875 -21.390625 C 15.132812 -21.390625 17.578125 -20.5625 19.296875 -18.90625 C 21.023438 -17.257812 21.890625 -14.882812 21.890625 -11.78125 L 21.890625 -8.546875 L 8.921875 -8.546875 C 8.972656 -7.378906 9.40625 -6.457031 10.21875 -5.78125 C 11.03125 -5.113281 12.132812 -4.78125 13.53125 -4.78125 C 14.800781 -4.78125 15.96875 -4.898438 17.03125 -5.140625 C 18.101562 -5.390625 19.265625 -5.804688 20.515625 -6.390625 L 20.515625 -1.171875 C 19.378906 -0.585938 18.203125 -0.1875 16.984375 0.03125 C 15.773438 0.257812 14.332031 0.375 12.65625 0.375 Z M 12.234375 -16.453125 C 11.378906 -16.453125 10.660156 -16.179688 10.078125 -15.640625 C 9.503906 -15.109375 9.171875 -14.269531 9.078125 -13.125 L 15.3125 -13.125 C 15.28125 -14.132812 14.988281 -14.941406 14.4375 -15.546875 C 13.894531 -16.148438 13.160156 -16.453125 12.234375 -16.453125 Z M 12.234375 -16.453125" transform="translate(254.803 201.75)"/></g></g></g><g fill="#004AAD"><g><g><path d="M 9.03125 0.375 C 7.539062 0.375 6.234375 -0.0507812 5.109375 -0.90625 C 3.992188 -1.757812 3.128906 -3.015625 2.515625 -4.671875 C 1.898438 -6.328125 1.59375 -8.265625 1.59375 -10.484375 C 1.59375 -13.898438 2.28125 -16.570312 3.65625 -18.5 C 5.03125 -20.425781 6.914062 -21.390625 9.3125 -21.390625 C 10.488281 -21.390625 11.519531 -21.15625 12.40625 -20.6875 C 13.289062 -20.21875 14.097656 -19.425781 14.828125 -18.3125 L 14.96875 -18.3125 C 14.738281 -19.957031 14.625 -21.601562 14.625 -23.25 L 14.625 -28.875 L 21.9375 -28.875 L 21.9375 0 L 16.453125 0 L 14.90625 -2.65625 L 14.625 -2.65625 C 13.375 -0.632812 11.507812 0.375 9.03125 0.375 Z M 12 -5.359375 C 13.164062 -5.359375 13.984375 -5.722656 14.453125 -6.453125 C 14.929688 -7.179688 15.191406 -8.304688 15.234375 -9.828125 L 15.234375 -10.40625 C 15.234375 -12.257812 14.96875 -13.578125 14.4375 -14.359375 C 13.90625 -15.148438 13.070312 -15.546875 11.9375 -15.546875 C 10.976562 -15.546875 10.234375 -15.097656 9.703125 -14.203125 C 9.179688 -13.304688 8.921875 -12.03125 8.921875 -10.375 C 8.921875 -8.738281 9.1875 -7.492188 9.71875 -6.640625 C 10.25 -5.785156 11.007812 -5.359375 12 -5.359375 Z M 12 -5.359375" transform="translate(278.288 201.75)"/></g></g></g><g fill="#004AAD"><g><g><path d="M 9.796875 0 L 2.546875 0 L 2.546875 -21.015625 L 9.796875 -21.015625 Z M 2.359375 -26.25 C 2.359375 -27.34375 2.660156 -28.15625 3.265625 -28.6875 C 3.867188 -29.21875 4.847656 -29.484375 6.203125 -29.484375 C 7.546875 -29.484375 8.523438 -29.207031 9.140625 -28.65625 C 9.765625 -28.113281 10.078125 -27.3125 10.078125 -26.25 C 10.078125 -24.125 8.785156 -23.0625 6.203125 -23.0625 C 3.640625 -23.0625 2.359375 -24.125 2.359375 -26.25 Z M 2.359375 -26.25" transform="translate(302.72 201.75)"/></g></g></g><g fill="#004AAD"><g><g><path d="M 16.21875 0 L 14.828125 -2.78125 L 14.671875 -2.78125 C 13.703125 -1.570312 12.707031 -0.742188 11.6875 -0.296875 C 10.675781 0.148438 9.363281 0.375 7.75 0.375 C 5.769531 0.375 4.210938 -0.21875 3.078125 -1.40625 C 1.941406 -2.59375 1.375 -4.265625 1.375 -6.421875 C 1.375 -8.660156 2.148438 -10.328125 3.703125 -11.421875 C 5.265625 -12.515625 7.523438 -13.128906 10.484375 -13.265625 L 13.984375 -13.375 L 13.984375 -13.671875 C 13.984375 -15.398438 13.132812 -16.265625 11.4375 -16.265625 C 9.894531 -16.265625 7.941406 -15.75 5.578125 -14.71875 L 3.484375 -19.5 C 5.929688 -20.757812 9.023438 -21.390625 12.765625 -21.390625 C 15.460938 -21.390625 17.550781 -20.722656 19.03125 -19.390625 C 20.507812 -18.054688 21.25 -16.1875 21.25 -13.78125 L 21.25 0 Z M 10.84375 -4.75 C 11.71875 -4.75 12.46875 -5.023438 13.09375 -5.578125 C 13.71875 -6.140625 14.03125 -6.863281 14.03125 -7.75 L 14.03125 -9.390625 L 12.359375 -9.3125 C 9.972656 -9.226562 8.78125 -8.351562 8.78125 -6.6875 C 8.78125 -5.394531 9.46875 -4.75 10.84375 -4.75 Z M 10.84375 -4.75" transform="translate(315.074 201.75)"/></g></g></g></svg>